# xmcd
#
# Track frame offsets: 
#        150
#        11890
#        31875
#        54001
#        68353
#        85742
#        115983
#        119607
#        144143
#        168345
#        181929
#        207157
#
# Disc length: 2907 seconds
#
# Revision: 0
# Processed by: cddbd v1.5.2PL0 Copyright (c) Steve Scherf et al.
# Submitted via: ExactAudioCopy v1.1
#
DISCID=920b590c
DTITLE=Imperial Rooster - Decent People
DYEAR=2011
DGENRE=Country
TTITLE0=Anything Goes At A Rooster Show (Rooster Anthem)
TTITLE1=K.S.S. (Korn Sirrup Sundae)
TTITLE2=The Vintage
TTITLE3=D.W.I. Marijuana Blues
TTITLE4=God Has Left The Building
TTITLE5=The Beast On The Backs Of Our Children
TTITLE6=45 Seconds Of Blood
TTITLE7=McGinty's
TTITLE8=I Like The Way
TTITLE9=The Sun
TTITLE10=One Click Away
TTITLE11=Suzie Anna Riverstone
EXTD=
EXTT0=
EXTT1=
EXTT2=
EXTT3=
EXTT4=
EXTT5=
EXTT6=
EXTT7=
EXTT8=
EXTT9=
EXTT10=
EXTT11=
PLAYORDER=
